<?xml version="1.0" encoding="utf-8"?>
<!-- Generator: Adobe Illustrator 25.2.3, SVG Export Plug-In . SVG Version: 6.00 Build 0)  -->
<svg version="1.1" id="Layer_1" xmlns="http://www.w3.org/2000/svg" xmlns:xlink="http://www.w3.org/1999/xlink" x="0px" y="0px"
	 viewBox="0 0 180 180" style="enable-background:new 0 0 180 180;" xml:space="preserve">
<style type="text/css">
	.st0{fill:url(#SVGID_1_);}
	.st1{fill:url(#SVGID_2_);}
	.st2{fill:url(#SVGID_3_);}
	.st3{fill:url(#SVGID_4_);}
	.st4{fill:url(#SVGID_5_);}
	.st5{fill:url(#SVGID_6_);}
	.st6{fill:url(#SVGID_7_);}
	.st7{fill:url(#SVGID_8_);}
</style>
<g>
	<g>
		
			<linearGradient id="SVGID_1_" gradientUnits="userSpaceOnUse" x1="1597.0675" y1="1228.5216" x2="1795.2672" y2="1228.5216" gradientTransform="matrix(-4.489700e-11 -1 -1 4.489700e-11 1350.7107 1815.9385)">
			<stop  offset="0" style="stop-color:#FEEE90"/>
			<stop  offset="0.0854" style="stop-color:#FEE291"/>
			<stop  offset="0.2403" style="stop-color:#FEC293"/>
			<stop  offset="0.4458" style="stop-color:#FE8E96"/>
			<stop  offset="0.4928" style="stop-color:#FE8197"/>
			<stop  offset="0.5713" style="stop-color:#F489A0"/>
			<stop  offset="0.706" style="stop-color:#D89FB8"/>
			<stop  offset="0.8794" style="stop-color:#ACC2DE"/>
			<stop  offset="1" style="stop-color:#89DDFC"/>
		</linearGradient>
		<path class="st0" d="M107.53,46.42l18.74-22.34l10.57,0.01c-0.1,1.57-0.36,3.15-0.78,4.72c-2.89,10.71-12.66,17.74-23.26,17.61
			L107.53,46.42z"/>
		
			<linearGradient id="SVGID_2_" gradientUnits="userSpaceOnUse" x1="1597.0675" y1="1247.9402" x2="1795.2672" y2="1247.9402" gradientTransform="matrix(-4.489700e-11 -1 -1 4.489700e-11 1350.7107 1815.9385)">
			<stop  offset="0" style="stop-color:#FEEE90"/>
			<stop  offset="0.0854" style="stop-color:#FEE291"/>
			<stop  offset="0.2403" style="stop-color:#FEC293"/>
			<stop  offset="0.4458" style="stop-color:#FE8E96"/>
			<stop  offset="0.4928" style="stop-color:#FE8197"/>
			<stop  offset="0.5713" style="stop-color:#F489A0"/>
			<stop  offset="0.706" style="stop-color:#D89FB8"/>
			<stop  offset="0.8794" style="stop-color:#ACC2DE"/>
			<stop  offset="1" style="stop-color:#89DDFC"/>
		</linearGradient>
		<polygon class="st1" points="83.41,46.41 102.16,24.07 122.13,24.08 103.39,46.41 93.76,46.41 		"/>
		
			<linearGradient id="SVGID_3_" gradientUnits="userSpaceOnUse" x1="1597.0675" y1="1272.0601" x2="1795.2672" y2="1272.0601" gradientTransform="matrix(-4.489700e-11 -1 -1 4.489700e-11 1350.7107 1815.9385)">
			<stop  offset="0" style="stop-color:#FEEE90"/>
			<stop  offset="0.0854" style="stop-color:#FEE291"/>
			<stop  offset="0.2403" style="stop-color:#FEC293"/>
			<stop  offset="0.4458" style="stop-color:#FE8E96"/>
			<stop  offset="0.4928" style="stop-color:#FE8197"/>
			<stop  offset="0.5713" style="stop-color:#F489A0"/>
			<stop  offset="0.706" style="stop-color:#D89FB8"/>
			<stop  offset="0.8794" style="stop-color:#ACC2DE"/>
			<stop  offset="1" style="stop-color:#89DDFC"/>
		</linearGradient>
		<polygon class="st2" points="78.03,24.06 78.04,24.07 89.31,24.06 98.01,24.07 79.26,46.41 59.29,46.4 		"/>
		
			<linearGradient id="SVGID_4_" gradientUnits="userSpaceOnUse" x1="1597.0675" y1="1290.6652" x2="1795.2672" y2="1290.6652" gradientTransform="matrix(-4.489700e-11 -1 -1 4.489700e-11 1350.7107 1815.9385)">
			<stop  offset="0" style="stop-color:#FEEE90"/>
			<stop  offset="0.0854" style="stop-color:#FEE291"/>
			<stop  offset="0.2403" style="stop-color:#FEC293"/>
			<stop  offset="0.4458" style="stop-color:#FE8E96"/>
			<stop  offset="0.4928" style="stop-color:#FE8197"/>
			<stop  offset="0.5713" style="stop-color:#F489A0"/>
			<stop  offset="0.706" style="stop-color:#D89FB8"/>
			<stop  offset="0.8794" style="stop-color:#ACC2DE"/>
			<stop  offset="1" style="stop-color:#89DDFC"/>
		</linearGradient>
		<path class="st3" d="M46.21,46.39c0.1-1.58,0.36-3.17,0.79-4.76c2.76-10.21,11.74-17.06,21.75-17.57l2.61,0l0.07,0l2.44,0
			L55.14,46.4L46.21,46.39z"/>
	</g>
	<g>
		
			<linearGradient id="SVGID_5_" gradientUnits="userSpaceOnUse" x1="1597.0675" y1="1263.1832" x2="1795.2672" y2="1263.1832" gradientTransform="matrix(-4.489700e-11 -1 -1 4.489700e-11 1350.7107 1815.9385)">
			<stop  offset="0" style="stop-color:#FEEE90"/>
			<stop  offset="0.0854" style="stop-color:#FEE291"/>
			<stop  offset="0.2403" style="stop-color:#FEC293"/>
			<stop  offset="0.4458" style="stop-color:#FE8E96"/>
			<stop  offset="0.4928" style="stop-color:#FE8197"/>
			<stop  offset="0.5713" style="stop-color:#F489A0"/>
			<stop  offset="0.706" style="stop-color:#D89FB8"/>
			<stop  offset="0.8794" style="stop-color:#ACC2DE"/>
			<stop  offset="1" style="stop-color:#89DDFC"/>
		</linearGradient>
		<path class="st4" d="M87.52,55.31c-1.9,0-3.78,0.12-5.63,0.36c-21.85,2.76-38.74,21.42-38.74,44.02c0,4.11,0.56,8.09,1.61,11.88
			c0.83,3.01,1.98,5.9,3.41,8.62c5.53,10.62,15.22,18.7,26.92,22.12l1.7,0.46l5,1.34l0.63,0.17l39.55,10.67l6.4,1.73
			c0.41-1.74,0.63-3.55,0.63-5.41c0-8.24-4.18-15.49-10.53-19.76c-0.04-0.04-0.1-0.07-0.14-0.09l0.19,0.04
			c2.85-2.77,5.33-5.94,7.34-9.4c3.85-6.56,6.05-14.2,6.05-22.36c0-11.72-4.54-22.39-11.98-30.32
			C111.83,60.71,100.31,55.31,87.52,55.31z M87.53,76.63c12.6,0,22.82,10.22,22.82,22.82c0,12.6-10.22,22.82-22.82,22.82
			s-22.82-10.22-22.82-22.82C64.71,86.85,74.93,76.63,87.53,76.63z"/>
	</g>
	
		<linearGradient id="SVGID_6_" gradientUnits="userSpaceOnUse" x1="1687.1504" y1="1266.9543" x2="1778.4078" y2="1266.9543" gradientTransform="matrix(-4.489700e-11 -1 -1 4.489700e-11 1350.7107 1815.9385)">
		<stop  offset="0" style="stop-color:#FEEE90"/>
		<stop  offset="0.0854" style="stop-color:#FEE291"/>
		<stop  offset="0.2403" style="stop-color:#FEC293"/>
		<stop  offset="0.4458" style="stop-color:#FE8E96"/>
		<stop  offset="0.4928" style="stop-color:#FE8197"/>
		<stop  offset="0.5713" style="stop-color:#F489A0"/>
		<stop  offset="0.706" style="stop-color:#D89FB8"/>
		<stop  offset="0.8794" style="stop-color:#ACC2DE"/>
		<stop  offset="1" style="stop-color:#89DDFC"/>
	</linearGradient>
	<path class="st5" d="M90.2,122.1c17.41-1.33,31.13-15.97,31.13-33.83c0-1.01-0.04-2.02-0.13-3.02c-0.02-0.24-0.04-0.48-0.07-0.72
		c-1.47-13.56-10.9-24.71-23.47-28.65l-0.02-0.01l-1-0.27l-0.08-0.02l-1.33-0.37l-0.05-0.01l-1.83-0.5l-0.78-0.21L53.24,43.82
		l-6.49-1.75c-0.33,1.59-0.48,3.11-0.54,4.8c-0.34,8.62,3.97,16.24,10.47,20.5c0.11,0.07,6.19,1.36,6.19,1.36l7.96,2.15l1.71,0.47
		l19.34,5.58c1.04,0.21,2.22,0.56,3.2,0.91c7.57,2.62,13.22,8.79,14.84,16.82c0.29,1.49,0.51,3.16,0.51,4.74
		C110.43,111.25,101.62,120.82,90.2,122.1z"/>
	
		<linearGradient id="SVGID_7_" gradientUnits="userSpaceOnUse" x1="155.0582" y1="614.1653" x2="353.2578" y2="614.1653" gradientTransform="matrix(1 0 0 -1 -187.336 713.5705)">
		<stop  offset="0" style="stop-color:#FEEE90"/>
		<stop  offset="0.0854" style="stop-color:#FEE291"/>
		<stop  offset="0.2403" style="stop-color:#FEC293"/>
		<stop  offset="0.4458" style="stop-color:#FE8E96"/>
		<stop  offset="0.4928" style="stop-color:#FE8197"/>
		<stop  offset="0.5713" style="stop-color:#F489A0"/>
		<stop  offset="0.706" style="stop-color:#D89FB8"/>
		<stop  offset="0.8794" style="stop-color:#ACC2DE"/>
		<stop  offset="1" style="stop-color:#89DDFC"/>
	</linearGradient>
	<path class="st6" d="M80.67,99.41v8.9c0,1.07,1.16,1.74,2.09,1.2l7.7-4.45l7.7-4.45c0.93-0.54,0.93-1.87,0-2.41l-7.7-4.45
		l-7.7-4.45c-0.93-0.54-2.09,0.13-2.09,1.2V99.41z"/>
	
		<linearGradient id="SVGID_8_" gradientUnits="userSpaceOnUse" x1="1648.6901" y1="1259.2668" x2="1746.248" y2="1259.2668" gradientTransform="matrix(-4.489700e-11 -1 -1 4.489700e-11 1350.7107 1815.9385)">
		<stop  offset="0" style="stop-color:#FEEE90"/>
		<stop  offset="0.0854" style="stop-color:#FEE291"/>
		<stop  offset="0.2403" style="stop-color:#FEC293"/>
		<stop  offset="0.4458" style="stop-color:#FE8E96"/>
		<stop  offset="0.4928" style="stop-color:#FE8197"/>
		<stop  offset="0.5713" style="stop-color:#F489A0"/>
		<stop  offset="0.706" style="stop-color:#D89FB8"/>
		<stop  offset="0.8794" style="stop-color:#ACC2DE"/>
		<stop  offset="1" style="stop-color:#89DDFC"/>
	</linearGradient>
	<path class="st7" d="M85,76.76c-17.41,1.33-31.13,15.97-31.13,33.83c0,1.01,0.04,2.02,0.13,3.02c0.02,0.24,0.04,0.48,0.07,0.72
		c1.47,13.56,10.9,24.71,23.47,28.65l0.02,0.01l1,0.27l0.08,0.02l1.33,0.37l0.05,0.01l1.83,0.5l0.78,0.21l39.33,10.68l6.49,1.75
		c0.33-1.59,0.48-3.11,0.54-4.8c0.34-8.62-3.97-16.24-10.47-20.5c-0.11-0.07-6.19-1.36-6.19-1.36l-7.96-2.15l-1.71-0.47l-19.34-5.58
		c-1.04-0.21-2.22-0.56-3.2-0.91c-7.57-2.62-13.22-8.79-14.84-16.82c-0.29-1.49-0.51-3.16-0.51-4.74
		C64.77,87.61,73.58,78.04,85,76.76z"/>
</g>
</svg>
