<?xml version="1.0" encoding="utf-8"?>
<!-- Generator: Adobe Illustrator 25.3.1, SVG Export Plug-In . SVG Version: 6.00 Build 0)  -->
<svg version="1.1" id="Layer_1" xmlns="http://www.w3.org/2000/svg" xmlns:xlink="http://www.w3.org/1999/xlink" x="0px" y="0px"
	 viewBox="0 0 199.89 134.5" style="enable-background:new 0 0 199.89 134.5;" xml:space="preserve">
<style type="text/css">
	.st0{fill:#372560;}
	.st1{fill:url(#SVGID_1_);}
	.st2{fill:url(#SVGID_2_);}
	.st3{fill:url(#SVGID_3_);}
	.st4{fill:url(#SVGID_4_);}
	.st5{fill:url(#SVGID_5_);}
	.st6{fill:url(#SVGID_6_);}
	.st7{fill:url(#SVGID_7_);}
	.st8{fill:url(#SVGID_8_);}
	.st9{fill:url(#SVGID_9_);}
</style>
<g>
	<g>
		<path class="st0" d="M0.03,120.52h2.2v12.12h5.91v1.86H0.03V120.52z"/>
		<path class="st0" d="M17.57,120.52h2.2v13.98h-2.2V120.52z"/>
		<path class="st0" d="M30.37,120.52h8.28v1.84h-6.08v4.27h5.17v1.84h-5.17v6.02h-2.2V120.52z"/>
		<path class="st0" d="M48.06,120.52h8.27v1.84h-6.06v3.89h5.13v1.86h-5.13v4.52h6.27v1.86h-8.47V120.52z"/>
		<path class="st0" d="M80.42,122.36h-4.1v-1.84h10.43v1.84h-4.12v12.14h-2.2V122.36z"/>
		<path class="st0" d="M96.11,120.52h2.2v5.7h5.99v-5.7h2.2v13.98h-2.2v-6.37h-5.99v6.37h-2.2V120.52z"/>
		<path class="st0" d="M117.11,120.52h8.27v1.84h-6.06v3.89h5.13v1.86h-5.13v4.52h6.27v1.86h-8.47V120.52z"/>
		<path class="st0" d="M141.88,130.51h-4.86l-1.2,3.99h-2.24l4.64-13.98h2.55l4.64,13.98h-2.34L141.88,130.51z M141.35,128.78
			l-0.55-1.88c-0.24-0.76-0.47-1.53-0.68-2.3c-0.21-0.77-0.43-1.56-0.65-2.36h-0.08c-0.2,0.8-0.41,1.58-0.63,2.36
			c-0.22,0.77-0.44,1.54-0.67,2.3l-0.57,1.88H141.35z"/>
		<path class="st0" d="M155.73,122.36h-4.1v-1.84h10.43v1.84h-4.12v12.14h-2.2V122.36z"/>
		<path class="st0" d="M171.43,120.52h8.27v1.84h-6.06v3.89h5.13v1.86h-5.13v4.52h6.27v1.86h-8.47V120.52z"/>
		<path class="st0" d="M197.4,134.5l-3.17-5.64h-2.26v5.64h-2.2v-13.98h4.58c0.72,0,1.39,0.07,2,0.21c0.61,0.14,1.15,0.37,1.61,0.68
			s0.81,0.73,1.06,1.24c0.25,0.51,0.38,1.15,0.38,1.91c0,1.11-0.27,1.99-0.8,2.63c-0.53,0.64-1.24,1.1-2.13,1.38l3.42,5.93H197.4z
			 M191.97,127.09h2.11c1.03,0,1.8-0.21,2.34-0.63s0.8-1.05,0.8-1.9s-0.27-1.44-0.8-1.78c-0.53-0.34-1.31-0.5-2.34-0.5h-2.11V127.09
			z"/>
	</g>
	<g>
		<g>
			<linearGradient id="SVGID_1_" gradientUnits="userSpaceOnUse" x1="6.957" y1="16.3872" x2="189.5893" y2="16.3872">
				<stop  offset="0" style="stop-color:#FEEE90"/>
				<stop  offset="0.0854" style="stop-color:#FEE291"/>
				<stop  offset="0.2403" style="stop-color:#FEC293"/>
				<stop  offset="0.4458" style="stop-color:#FE8E96"/>
				<stop  offset="0.4928" style="stop-color:#FE8197"/>
				<stop  offset="0.5713" style="stop-color:#F489A0"/>
				<stop  offset="0.706" style="stop-color:#D89FB8"/>
				<stop  offset="0.8794" style="stop-color:#ACC2DE"/>
				<stop  offset="1" style="stop-color:#89DDFC"/>
			</linearGradient>
			<path class="st1" d="M174.51,32.77l24.98-20.96L199.47,0c-1.75,0.11-3.52,0.4-5.27,0.88c-11.98,3.24-19.84,14.15-19.69,26
				L174.51,32.77z"/>
			<linearGradient id="SVGID_2_" gradientUnits="userSpaceOnUse" x1="6.957" y1="38.1002" x2="189.5893" y2="38.1002">
				<stop  offset="0" style="stop-color:#FEEE90"/>
				<stop  offset="0.0854" style="stop-color:#FEE291"/>
				<stop  offset="0.2403" style="stop-color:#FEC293"/>
				<stop  offset="0.4458" style="stop-color:#FE8E96"/>
				<stop  offset="0.4928" style="stop-color:#FE8197"/>
				<stop  offset="0.5713" style="stop-color:#F489A0"/>
				<stop  offset="0.706" style="stop-color:#D89FB8"/>
				<stop  offset="0.8794" style="stop-color:#ACC2DE"/>
				<stop  offset="1" style="stop-color:#89DDFC"/>
			</linearGradient>
			<polygon class="st2" points="174.52,59.74 199.5,38.79 199.49,16.46 174.51,37.4 174.51,48.18 			"/>
			<linearGradient id="SVGID_3_" gradientUnits="userSpaceOnUse" x1="6.957" y1="65.0698" x2="189.5893" y2="65.0698">
				<stop  offset="0" style="stop-color:#FEEE90"/>
				<stop  offset="0.0854" style="stop-color:#FEE291"/>
				<stop  offset="0.2403" style="stop-color:#FEC293"/>
				<stop  offset="0.4458" style="stop-color:#FE8E96"/>
				<stop  offset="0.4928" style="stop-color:#FE8197"/>
				<stop  offset="0.5713" style="stop-color:#F489A0"/>
				<stop  offset="0.706" style="stop-color:#D89FB8"/>
				<stop  offset="0.8794" style="stop-color:#ACC2DE"/>
				<stop  offset="1" style="stop-color:#89DDFC"/>
			</linearGradient>
			<polygon class="st3" points="199.5,65.77 199.5,65.76 199.51,53.15 199.5,43.43 174.52,64.38 174.53,86.71 			"/>
			<linearGradient id="SVGID_4_" gradientUnits="userSpaceOnUse" x1="6.957" y1="85.8733" x2="189.5893" y2="85.8733">
				<stop  offset="0" style="stop-color:#FEEE90"/>
				<stop  offset="0.0854" style="stop-color:#FEE291"/>
				<stop  offset="0.2403" style="stop-color:#FEC293"/>
				<stop  offset="0.4458" style="stop-color:#FE8E96"/>
				<stop  offset="0.4928" style="stop-color:#FE8197"/>
				<stop  offset="0.5713" style="stop-color:#F489A0"/>
				<stop  offset="0.706" style="stop-color:#D89FB8"/>
				<stop  offset="0.8794" style="stop-color:#ACC2DE"/>
				<stop  offset="1" style="stop-color:#89DDFC"/>
			</linearGradient>
			<path class="st4" d="M174.54,101.34c1.77-0.12,3.55-0.4,5.33-0.88c11.41-3.08,19.08-13.13,19.65-24.32l0-2.92l0-0.08l0-2.72
				l-24.97,20.95L174.54,101.34z"/>
		</g>
		<g>
			<linearGradient id="SVGID_5_" gradientUnits="userSpaceOnUse" x1="6.957" y1="55.0745" x2="189.5893" y2="55.0745">
				<stop  offset="0" style="stop-color:#FEEE90"/>
				<stop  offset="0.0854" style="stop-color:#FEE291"/>
				<stop  offset="0.2403" style="stop-color:#FEC293"/>
				<stop  offset="0.4458" style="stop-color:#FE8E96"/>
				<stop  offset="0.4928" style="stop-color:#FE8197"/>
				<stop  offset="0.5713" style="stop-color:#F489A0"/>
				<stop  offset="0.706" style="stop-color:#D89FB8"/>
				<stop  offset="0.8794" style="stop-color:#ACC2DE"/>
				<stop  offset="1" style="stop-color:#89DDFC"/>
			</linearGradient>
			<path class="st5" d="M148.85,18.85c-8.87-8.31-20.79-13.39-33.9-13.39c-9.12,0-17.66,2.46-25,6.76
				c-3.87,2.25-7.41,5.02-10.51,8.21c-0.37,0.38-1.18,1.37-1.22,1.32C73.43,14.65,66.5,8.71,57.29,8.71c-2.08,0-4.11,0.24-6.05,0.7
				l1.93,7.16L65.1,60.79l0.19,0.7l1.5,5.59l0.51,1.9c3.82,13.08,12.86,23.92,24.73,30.1c3.04,1.6,6.27,2.88,9.64,3.81
				c4.23,1.17,8.68,1.8,13.28,1.8c25.27,0,46.13-18.89,49.22-43.32c0.27-2.06,0.4-4.16,0.4-6.29
				C164.57,40.78,158.53,27.9,148.85,18.85z M115.21,80.59c-14.09,0-25.51-11.42-25.51-25.51s11.42-25.51,25.51-25.51
				c14.09,0,25.51,11.42,25.51,25.51S129.3,80.59,115.21,80.59z"/>
		</g>
		<linearGradient id="SVGID_6_" gradientUnits="userSpaceOnUse" x1="82.4061" y1="59.3609" x2="184.446" y2="59.3609">
			<stop  offset="0" style="stop-color:#FEEE90"/>
			<stop  offset="0.0854" style="stop-color:#FEE291"/>
			<stop  offset="0.2403" style="stop-color:#FEC293"/>
			<stop  offset="0.4458" style="stop-color:#FE8E96"/>
			<stop  offset="0.4928" style="stop-color:#FE8197"/>
			<stop  offset="0.5713" style="stop-color:#F489A0"/>
			<stop  offset="0.706" style="stop-color:#D89FB8"/>
			<stop  offset="0.8794" style="stop-color:#ACC2DE"/>
			<stop  offset="1" style="stop-color:#89DDFC"/>
		</linearGradient>
		<path class="st6" d="M89.88,52.16c1.49-19.47,17.86-34.8,37.83-34.8c1.13,0,2.26,0.05,3.37,0.15c0.27,0.02,0.54,0.05,0.8,0.08
			c15.16,1.65,27.63,12.18,32.04,26.24l0.01,0.02l0.3,1.12l0.02,0.09l0.41,1.49l0.01,0.06l0.56,2.05l0.23,0.87l11.94,43.97
			l1.96,7.25c-1.78,0.37-3.48,0.53-5.36,0.61c-9.64,0.38-18.16-4.44-22.93-11.7c-0.08-0.12-1.52-6.92-1.52-6.92l-2.41-8.9
			l-0.52-1.92l-6.24-21.63c-0.23-1.17-0.63-2.48-1.02-3.57c-2.93-8.46-9.83-14.78-18.81-16.6c-1.67-0.33-3.54-0.57-5.31-0.57
			C102.02,29.54,91.32,39.38,89.88,52.16z"/>
		<linearGradient id="SVGID_7_" gradientUnits="userSpaceOnUse" x1="6.957" y1="53.6927" x2="189.5893" y2="53.6927">
			<stop  offset="0" style="stop-color:#FEEE90"/>
			<stop  offset="0.0854" style="stop-color:#FEE291"/>
			<stop  offset="0.2403" style="stop-color:#FEC293"/>
			<stop  offset="0.4458" style="stop-color:#FE8E96"/>
			<stop  offset="0.4928" style="stop-color:#FE8197"/>
			<stop  offset="0.5713" style="stop-color:#F489A0"/>
			<stop  offset="0.706" style="stop-color:#D89FB8"/>
			<stop  offset="0.8794" style="stop-color:#ACC2DE"/>
			<stop  offset="1" style="stop-color:#89DDFC"/>
		</linearGradient>
		<path class="st7" d="M107.97,53.69v-9.95c0-1.2,1.3-1.94,2.33-1.35l8.61,4.97l8.61,4.97c1.04,0.6,1.04,2.09,0,2.69l-8.61,4.97
			l-8.61,4.97c-1.04,0.6-2.33-0.15-2.33-1.35V53.69z"/>
		<linearGradient id="SVGID_8_" gradientUnits="userSpaceOnUse" x1="39.4017" y1="50.7683" x2="148.4864" y2="50.7683">
			<stop  offset="0" style="stop-color:#FEEE90"/>
			<stop  offset="0.0854" style="stop-color:#FEE291"/>
			<stop  offset="0.2403" style="stop-color:#FEC293"/>
			<stop  offset="0.4458" style="stop-color:#FE8E96"/>
			<stop  offset="0.4928" style="stop-color:#FE8197"/>
			<stop  offset="0.5713" style="stop-color:#F489A0"/>
			<stop  offset="0.706" style="stop-color:#D89FB8"/>
			<stop  offset="0.8794" style="stop-color:#ACC2DE"/>
			<stop  offset="1" style="stop-color:#89DDFC"/>
		</linearGradient>
		<path class="st8" d="M140.59,57.97c-1.49,19.47-17.86,34.8-37.83,34.8c-1.13,0-2.26-0.05-3.37-0.15c-0.27-0.02-0.54-0.05-0.8-0.08
			C83.42,90.9,70.95,80.36,66.54,66.3l-0.01-0.02l-0.3-1.12l-0.02-0.09l-0.41-1.49l-0.01-0.06l-0.56-2.05l-0.23-0.87L53.05,16.64
			L51.1,9.39c1.78-0.37,3.48-0.53,5.36-0.61c9.64-0.38,17.9,6.77,22.67,14.04c0.08,0.12,1.78,4.58,1.78,4.58l2.41,8.9l0.52,1.92
			l6.24,21.63c0.23,1.17,0.63,2.48,1.02,3.57c2.93,8.46,9.83,14.78,18.81,16.6c1.67,0.33,3.54,0.57,5.31,0.57
			C128.45,80.59,139.15,70.74,140.59,57.97z"/>
		<linearGradient id="SVGID_9_" gradientUnits="userSpaceOnUse" x1="6.957" y1="53.4847" x2="189.5893" y2="53.4847">
			<stop  offset="0" style="stop-color:#FEEE90"/>
			<stop  offset="0.0854" style="stop-color:#FEE291"/>
			<stop  offset="0.2403" style="stop-color:#FEC293"/>
			<stop  offset="0.4458" style="stop-color:#FE8E96"/>
			<stop  offset="0.4928" style="stop-color:#FE8197"/>
			<stop  offset="0.5713" style="stop-color:#F489A0"/>
			<stop  offset="0.706" style="stop-color:#D89FB8"/>
			<stop  offset="0.8794" style="stop-color:#ACC2DE"/>
			<stop  offset="1" style="stop-color:#89DDFC"/>
		</linearGradient>
		<path class="st9" d="M81.02,27.09c-2.92-6.35-9.21-10.74-16.51-10.74c-7.44,0-13.84,4.55-16.68,11.1
			c-0.4,0.92-0.74,1.89-0.99,2.89c-0.38,1.51-0.58,3.07-0.58,4.7c0,4.57,1.6,8.76,4.25,12.01c0.5,0.6,1.03,1.17,1.59,1.7
			c4.44,5.12,7.27,11.74,7.68,19.01c0.03,0.6,0.05,1.22,0.05,1.83c0,2.79-0.35,5.49-1.02,8.07c-0.13,0.5-0.27,1-0.43,1.51
			c-3.95,12.66-15.53,21.83-29.19,21.83c-13.66,0-25.24-9.17-29.19-21.83h22.87c0.17,0,0.34,0,0.5-0.01h0.1
			c0.22,0,0.44-0.01,0.66-0.02c0.15-0.01,0.3-0.02,0.45-0.04c5.47-0.56,9.74-5.3,9.74-11.06c0-2.73-0.96-5.23-2.55-7.15
			c-0.5-0.62-1.07-1.18-1.69-1.67c-4.97-5.24-8.17-12.26-8.6-20.03c-0.03-0.6-0.05-1.21-0.05-1.82c0-2.92,0.39-5.74,1.11-8.43
			c0.14-0.5,0.29-1,0.45-1.5C27.04,14.96,38.52,5.96,52.06,5.96C65.48,5.96,76.87,14.79,81.02,27.09z"/>
	</g>
</g>
</svg>
